<svg width="20" height="20" viewBox="0 0 20 20" fill="none" xmlns="http://www.w3.org/2000/svg">
<path d="M4.16927 16.6667V15H5.5026L7.14844 9.52083C7.25955 9.15972 7.46427 8.87139 7.7626 8.65583C8.06149 8.44083 8.39149 8.33333 8.7526 8.33333H11.2526C11.6137 8.33333 11.9437 8.44083 12.2426 8.65583C12.5409 8.87139 12.7457 9.15972 12.8568 9.52083L14.5026 15H15.8359V16.6667H4.16927ZM7.2526 15H12.7526L11.2526 10H8.7526L7.2526 15ZM9.16927 6.66667V2.5H10.8359V6.66667H9.16927ZM14.1276 8.72917L12.9401 7.54167L15.8984 4.60417L17.0651 5.77083L14.1276 8.72917ZM15.0026 12.5V10.8333H19.1693V12.5H15.0026ZM5.8776 8.72917L2.9401 5.77083L4.10677 4.60417L7.0651 7.54167L5.8776 8.72917ZM0.835938 12.5V10.8333H5.0026V12.5H0.835938Z" fill="#999999"/>
</svg>
