<svg width="20" height="21" viewBox="0 0 20 21" fill="none" xmlns="http://www.w3.org/2000/svg">
<path d="M14.493 13.7345C16.9853 12.366 18.8748 11.3232 19.0377 11.2422C19.5587 10.9651 20.0967 10.2318 19.0377 9.66221C18.6957 9.48315 16.8548 8.47278 14.493 7.16992L11.2188 10.4765L14.493 13.7345Z" fill="#FFD900"/>
<path d="M11.2224 10.4766L0.796875 20.9837C1.04157 21.0161 1.31787 20.9513 1.64359 20.7722C2.32744 20.3979 9.57674 16.4391 14.4966 13.7353L11.2224 10.4766Z" fill="#F43249"/>
<path d="M11.2229 10.4765L14.4972 7.18613C14.4972 7.18613 2.37744 0.572163 1.64417 0.181629C1.36787 0.017961 1.05836 -0.0306532 0.78125 0.017961L11.2229 10.4765Z" fill="#00EE76"/>
<path d="M11.2236 10.4761L0.781891 0.0175781C0.358131 0.115617 0 0.489946 0 1.25562V19.7452C0 20.4461 0.277106 20.9509 0.798096 20.9995L11.2236 10.4761Z" fill="#00D3FF"/>
</svg>
