<svg width="20" height="20" viewBox="0 0 20 20" fill="none" xmlns="http://www.w3.org/2000/svg">
<path d="M19.8055 8.0415H19V8H10V12H15.6515C14.827 14.3285 12.6115 16 10 16C6.6865 16 4 13.3135 4 10C4 6.6865 6.6865 4 10 4C11.5295 4 12.921 4.577 13.9805 5.5195L16.809 2.691C15.023 1.0265 12.634 0 10 0C4.4775 0 0 4.4775 0 10C0 15.5225 4.4775 20 10 20C15.5225 20 20 15.5225 20 10C20 9.3295 19.931 8.675 19.8055 8.0415Z" fill="#FFC107"/>
<path d="M1.15283 5.3455L4.43833 7.755C5.32733 5.554 7.48033 4 9.99983 4C11.5293 4 12.9208 4.577 13.9803 5.5195L16.8088 2.691C15.0228 1.0265 12.6338 0 9.99983 0C6.15883 0 2.82783 2.1685 1.15283 5.3455Z" fill="#FF3D00"/>
<path d="M10.0002 20.0002C12.5832 20.0002 14.9302 19.0117 16.7046 17.4042L13.6097 14.7852C12.6057 15.5457 11.3577 16.0002 10.0002 16.0002C7.39915 16.0002 5.19065 14.3417 4.35865 12.0272L1.09766 14.5397C2.75266 17.7782 6.11365 20.0002 10.0002 20.0002Z" fill="#4CAF50"/>
<path d="M19.8055 8.04113H19V7.99963H10V11.9996H15.6515C15.2555 13.1181 14.536 14.0826 13.608 14.7851C13.6085 14.7846 13.609 14.7846 13.6095 14.7841L16.7045 17.4031C16.4855 17.6021 20 14.9996 20 9.99963C20 9.32913 19.931 8.67463 19.8055 8.04113Z" fill="#1976D2"/>
</svg>
