<svg width="546" height="203" viewBox="0 0 546 203" fill="none" xmlns="http://www.w3.org/2000/svg">
<g clip-path="url(#clip0_9344_10959)">
<path fill-rule="evenodd" clip-rule="evenodd" d="M24.9862 174.358C28.2955 184.598 52.9068 181.594 52.9068 181.594C60.6102 181.063 63.6205 174.543 66.1666 169.029C66.6262 168.034 67.0707 167.071 67.525 166.182C68.9251 163.433 71.4008 157.594 74.0111 151.437C77.8376 142.411 81.9533 132.703 83.3939 131.049C84.1641 130.165 86.087 129.462 88.9611 128.41C95.1304 126.154 105.683 122.294 118.624 111.602C144.577 90.1693 139.469 53.8608 131.717 36.0722C123.965 18.2836 105.908 2.50633 83.5503 0.116234C76.5669 -0.628222 15.775 2.17982 10.6677 3.83852C5.56045 5.49722 -0.589094 11.1655 0.0362839 20.2819C0.492288 26.9297 21.677 164.119 24.9862 174.358ZM62.3029 42.0796C62.3029 44.8278 60.0804 47.0557 57.3389 47.0557C54.5974 47.0557 52.375 44.8278 52.375 42.0796C52.375 39.3314 54.5974 37.1035 57.3389 37.1035C60.0804 37.1035 62.3029 39.3314 62.3029 42.0796ZM62.3029 72.5396C62.3029 75.2878 60.0804 77.5157 57.3389 77.5157C54.5974 77.5157 52.375 75.2878 52.375 72.5396C52.375 69.7914 54.5974 67.5635 57.3389 67.5635C60.0804 67.5635 62.3029 69.7914 62.3029 72.5396ZM73.9737 75.5419H72.6448C71.2116 75.5419 70.0391 74.3664 70.0391 72.9298V42.3026C70.0391 40.8659 71.2116 39.6904 72.6448 39.6904H73.2572C83.3283 39.6904 91.4973 47.8794 91.4973 57.9753C91.4973 67.6794 83.6541 75.5419 73.9737 75.5419Z" fill="white"/>
</g>
<path d="M116.96 168C118.827 168 120.56 167.467 122.16 166.4C123.76 165.28 125.04 163.787 126 161.92C126.96 160.053 127.44 158 127.44 155.76C127.44 153.52 126.96 151.467 126 149.6C125.04 147.733 123.76 146.267 122.16 145.2C120.56 144.08 118.827 143.52 116.96 143.52C113.973 143.52 111.6 144.64 109.84 146.88C108.133 149.067 107.28 152.027 107.28 155.76C107.28 159.493 108.133 162.48 109.84 164.72C111.6 166.907 113.973 168 116.96 168ZM95.12 155.76C95.12 151.547 95.9733 147.787 97.68 144.48C99.44 141.173 101.867 138.587 104.96 136.72C108.107 134.853 111.68 133.92 115.68 133.92C117.92 133.92 120.053 134.4 122.08 135.36C124.16 136.267 125.947 137.6 127.44 139.36V133.84H139.6V177.44L127.44 177.52V172.24C125.947 173.947 124.16 175.253 122.08 176.16C120 177.12 117.867 177.6 115.68 177.6C111.68 177.6 108.107 176.667 104.96 174.8C101.867 172.933 99.44 170.347 97.68 167.04C95.9733 163.733 95.12 159.973 95.12 155.76ZM158.584 140.88C159.81 138.853 161.49 137.2 163.624 135.92C165.81 134.587 168.024 133.92 170.264 133.92V144.48C167.864 144.48 165.757 145.147 163.944 146.48C162.184 147.76 160.85 149.36 159.944 151.28C159.037 153.147 158.584 154.96 158.584 156.72V177.44H146.584V133.84H158.584V140.88ZM204.584 175.04C204.264 175.2 203.597 175.52 202.584 176C201.57 176.533 200.37 176.933 198.984 177.2C197.597 177.467 195.97 177.6 194.104 177.6C191.437 177.6 189.037 176.96 186.904 175.68C184.824 174.4 183.197 172.613 182.024 170.32C180.85 167.973 180.264 165.333 180.264 162.4V145.04H172.344V134.64H180.264V121.84H192.424V134.64H203.384V145.04H192.424V162.4C192.424 163.787 192.744 164.933 193.384 165.84C194.077 166.747 194.957 167.2 196.024 167.2C197.464 167.2 198.904 166.72 200.344 165.76L204.584 175.04ZM214.133 194.56L223.893 172.32L206.133 133.84H219.573L230.133 159.44L240.533 133.84H253.812L237.493 171.52L227.413 194.56H214.133ZM318.703 145.12C318.81 145.867 318.863 146.613 318.863 147.36C318.863 148.693 318.783 150.16 318.623 151.76C317.716 160.08 314.756 166.56 309.743 171.2C304.783 175.787 298.09 178.08 289.663 178.08C283.743 178.08 278.436 176.773 273.743 174.16C269.103 171.493 265.476 167.813 262.863 163.12C260.25 158.427 258.943 153.093 258.943 147.12C258.943 141.147 260.25 135.813 262.863 131.12C265.476 126.427 269.103 122.773 273.743 120.16C278.436 117.547 283.743 116.24 289.663 116.24C295.956 116.24 301.343 117.653 305.823 120.48C310.303 123.307 313.636 126.747 315.823 130.8L305.663 136.48C304.223 133.76 302.116 131.467 299.343 129.6C296.57 127.733 293.316 126.8 289.583 126.8C283.93 126.8 279.423 128.64 276.063 132.32C272.756 135.947 271.103 140.88 271.103 147.12C271.103 153.413 272.756 158.4 276.063 162.08C279.37 165.707 283.876 167.52 289.583 167.52C292.303 167.52 294.916 167.093 297.423 166.24C299.983 165.387 302.116 164 303.823 162.08C305.53 160.16 306.41 157.707 306.463 154.72H291.183V145.12H318.703ZM336.849 156.96C336.849 160.32 337.702 162.96 339.409 164.88C341.169 166.747 343.489 167.68 346.369 167.68C349.089 167.627 351.275 166.533 352.929 164.4C354.582 162.213 355.355 159.467 355.249 156.16V133.84H367.409V177.44H355.249V170.48C354.182 172.507 352.609 174.16 350.529 175.44C348.502 176.72 346.422 177.36 344.289 177.36C340.449 177.36 337.035 176.533 334.049 174.88C331.115 173.173 328.822 170.8 327.169 167.76C325.515 164.667 324.689 161.067 324.689 156.96V133.84H336.849V156.96ZM404.019 156C404.019 152.48 403.325 149.707 401.939 147.68C400.552 145.6 398.659 144.56 396.259 144.56C393.379 144.56 391.032 145.653 389.219 147.84C387.405 150.027 386.499 152.747 386.499 156V177.44H374.339V116.8H386.499V139.04C387.992 137.44 389.645 136.347 391.459 135.76C393.325 135.12 394.979 134.8 396.419 134.8C400.259 134.8 403.672 135.627 406.659 137.28C409.645 138.88 411.965 141.147 413.619 144.08C415.325 147.013 416.179 150.347 416.179 154.08V177.44H404.019V156ZM442.179 168C444.045 168 445.779 167.467 447.379 166.4C448.979 165.28 450.259 163.787 451.219 161.92C452.179 160.053 452.659 158 452.659 155.76C452.659 153.52 452.179 151.467 451.219 149.6C450.259 147.733 448.979 146.267 447.379 145.2C445.779 144.08 444.045 143.52 442.179 143.52C439.192 143.52 436.819 144.64 435.059 146.88C433.352 149.067 432.499 152.027 432.499 155.76C432.499 159.493 433.352 162.48 435.059 164.72C436.819 166.907 439.192 168 442.179 168ZM420.339 155.76C420.339 151.547 421.192 147.787 422.899 144.48C424.659 141.173 427.085 138.587 430.179 136.72C433.325 134.853 436.899 133.92 440.899 133.92C443.139 133.92 445.272 134.4 447.299 135.36C449.379 136.267 451.165 137.6 452.659 139.36V133.84H464.819V177.44L452.659 177.52V172.24C451.165 173.947 449.379 175.253 447.299 176.16C445.219 177.12 443.085 177.6 440.899 177.6C436.899 177.6 433.325 176.667 430.179 174.8C427.085 172.933 424.659 170.347 422.899 167.04C421.192 163.733 420.339 159.973 420.339 155.76ZM528.923 155.04C528.923 151.787 528.176 149.12 526.683 147.04C525.243 144.96 523.349 143.92 521.003 143.92C518.709 143.92 516.789 145.04 515.243 147.28C513.749 149.467 513.003 152.053 513.003 155.04V177.44H500.843V155.04C500.843 151.787 500.123 149.12 498.683 147.04C497.243 144.96 495.376 143.92 493.083 143.92C490.683 143.92 488.709 144.96 487.163 147.04C485.669 149.12 484.923 151.787 484.923 155.04V177.44H472.763V133.84H484.923V141.2C486.096 139.12 487.643 137.44 489.563 136.16C491.536 134.827 493.483 134.16 495.403 134.16C497.909 134.16 500.309 134.987 502.603 136.64C504.949 138.24 506.709 140.293 507.883 142.8C509.429 140.293 511.483 138.24 514.043 136.64C516.603 134.987 519.163 134.16 521.723 134.16C525.456 134.16 528.789 135.067 531.723 136.88C534.656 138.64 536.949 141.093 538.603 144.24C540.256 147.387 541.083 150.987 541.083 155.04V177.44H528.923V155.04Z" fill="white"/>
<defs>
<clipPath id="clip0_9344_10959">
<rect width="138" height="182" fill="white"/>
</clipPath>
</defs>
</svg>
