<svg width="28" height="28" viewBox="0 0 28 28" fill="none" xmlns="http://www.w3.org/2000/svg">
<path d="M5.83268 22.1666C5.50213 22.1666 5.22485 22.0546 5.00085 21.8306C4.77763 21.6074 4.66602 21.3305 4.66602 21C4.66602 20.6694 4.77763 20.3925 5.00085 20.1693C5.22485 19.9453 5.50213 19.8333 5.83268 19.8333H6.99935V11.6666C6.99935 10.0528 7.48546 8.61854 8.45768 7.36398C9.4299 6.1102 10.6938 5.28887 12.2493 4.89998V4.08331C12.2493 3.5972 12.4197 3.1842 12.7603 2.84431C13.1002 2.50365 13.5132 2.33331 13.9993 2.33331C14.4855 2.33331 14.8985 2.50365 15.2383 2.84431C15.579 3.1842 15.7493 3.5972 15.7493 4.08331V4.89998C17.3049 5.28887 18.5688 6.1102 19.541 7.36398C20.5132 8.61854 20.9993 10.0528 20.9993 11.6666V19.8333H22.166C22.4966 19.8333 22.7735 19.9453 22.9967 20.1693C23.2207 20.3925 23.3327 20.6694 23.3327 21C23.3327 21.3305 23.2207 21.6074 22.9967 21.8306C22.7735 22.0546 22.4966 22.1666 22.166 22.1666H5.83268ZM13.9993 25.6666C13.3577 25.6666 12.8086 25.4384 12.352 24.9818C11.8947 24.5245 11.666 23.975 11.666 23.3333H16.3327C16.3327 23.975 16.1044 24.5245 15.6478 24.9818C15.1905 25.4384 14.641 25.6666 13.9993 25.6666ZM9.33268 19.8333H18.666V11.6666C18.666 10.3833 18.2091 9.2847 17.2952 8.37081C16.3813 7.45692 15.2827 6.99998 13.9993 6.99998C12.716 6.99998 11.6174 7.45692 10.7035 8.37081C9.78963 9.2847 9.33268 10.3833 9.33268 11.6666V19.8333Z" fill="black"/>
</svg>
